<svg xmlns="http://www.w3.org/2000/svg" viewBox="0 0 512 512"><path d="M496.15,149.3a.68.68,0,0,0-.57-.3h-.1c-69.28,9.22-119.91,43.43-150.18,70.64A288.74,288.74,0,0,0,296.19,276a1,1,0,0,1-.74.45c-12.23,1.67-38.87,2.56-39.14,2.56s-26.93-.94-39.15-2.56a1,1,0,0,1-.72-.45,289.31,289.31,0,0,0-49.11-56.32C137.08,192.51,86.44,158.22,17.17,149h-.1a.7.7,0,0,0-.57.3.68.68,0,0,0,0,.72C20.19,156.37,34.42,179,62,204c29,26.24,79.29,60.25,153.67,73.24a1,1,0,0,1,.7.48,349.27,349.27,0,0,1,20.18,40.42c10.71,25.29,17.15,48.69,19.18,69.55a.68.68,0,0,0,1.35,0c2-20.86,8.49-44.26,19.18-69.55a353,353,0,0,1,20.18-40.42,1,1,0,0,1,.7-.48c74.33-13,124.54-47,153.67-73.24C478.44,179,492.59,156.37,496.36,150A.63.63,0,0,0,496.15,149.3Z" style="fill:#f00a32;fill-rule:evenodd"/></svg>